<svg id="visual" viewBox="0 0 960 540" width="960" height="540" xmlns="http://www.w3.org/2000/svg" xmlns:xlink="http://www.w3.org/1999/xlink" version="1.1"><rect x="0" y="0" width="960" height="540" fill="#001220"></rect><path d="M0 222L20 231.5C40 241 80 260 120 259C160 258 200 237 240 237.7C280 238.3 320 260.7 360 267C400 273.3 440 263.7 480 265.5C520 267.3 560 280.7 600 283.2C640 285.7 680 277.3 720 262.3C760 247.3 800 225.7 840 224.2C880 222.7 920 241.3 940 250.7L960 260L960 541L940 541C920 541 880 541 840 541C800 541 760 541 720 541C680 541 640 541 600 541C560 541 520 541 480 541C440 541 400 541 360 541C320 541 280 541 240 541C200 541 160 541 120 541C80 541 40 541 20 541L0 541Z" fill="#4facf7"></path><path d="M0 282L20 290.5C40 299 80 316 120 322.7C160 329.3 200 325.7 240 316.7C280 307.7 320 293.3 360 297.2C400 301 440 323 480 328C520 333 560 321 600 309C640 297 680 285 720 284.5C760 284 800 295 840 305.3C880 315.7 920 325.3 940 330.2L960 335L960 541L940 541C920 541 880 541 840 541C800 541 760 541 720 541C680 541 640 541 600 541C560 541 520 541 480 541C440 541 400 541 360 541C320 541 280 541 240 541C200 541 160 541 120 541C80 541 40 541 20 541L0 541Z" fill="#2b9dfc"></path><path d="M0 386L20 379.7C40 373.3 80 360.7 120 362.3C160 364 200 380 240 388.2C280 396.3 320 396.7 360 393.5C400 390.3 440 383.7 480 384.8C520 386 560 395 600 394.7C640 394.3 680 384.7 720 384.2C760 383.7 800 392.3 840 387C880 381.7 920 362.3 940 352.7L960 343L960 541L940 541C920 541 880 541 840 541C800 541 760 541 720 541C680 541 640 541 600 541C560 541 520 541 480 541C440 541 400 541 360 541C320 541 280 541 240 541C200 541 160 541 120 541C80 541 40 541 20 541L0 541Z" fill="#008cff"></path><path d="M0 438L20 431.7C40 425.3 80 412.7 120 406C160 399.3 200 398.7 240 404.8C280 411 320 424 360 431.7C400 439.3 440 441.7 480 445.5C520 449.3 560 454.7 600 456.7C640 458.7 680 457.3 720 453.2C760 449 800 442 840 430C880 418 920 401 940 392.5L960 384L960 541L940 541C920 541 880 541 840 541C800 541 760 541 720 541C680 541 640 541 600 541C560 541 520 541 480 541C440 541 400 541 360 541C320 541 280 541 240 541C200 541 160 541 120 541C80 541 40 541 20 541L0 541Z" fill="#007aff"></path><path d="M0 454L20 456.3C40 458.7 80 463.3 120 464.8C160 466.3 200 464.7 240 465.5C280 466.3 320 469.7 360 477.8C400 486 440 499 480 495.8C520 492.7 560 473.3 600 463.2C640 453 680 452 720 454C760 456 800 461 840 467.8C880 474.7 920 483.3 940 487.7L960 492L960 541L940 541C920 541 880 541 840 541C800 541 760 541 720 541C680 541 640 541 600 541C560 541 520 541 480 541C440 541 400 541 360 541C320 541 280 541 240 541C200 541 160 541 120 541C80 541 40 541 20 541L0 541Z" fill="#0066ff"></path></svg>